<?xml version="1.0" encoding="UTF-8" standalone="no"?>
<!-- Created with Inkscape (http://www.inkscape.org/) -->

<svg
   width="92.97525"
   height="116.01614"
   viewBox="0 0 92.97525 116.01614"
   version="1.1"
   id="svg1"
   xml:space="preserve"
   xmlns="http://www.w3.org/2000/svg"
   xmlns:svg="http://www.w3.org/2000/svg"><defs
     id="defs1" /><g
     id="layer1"
     transform="translate(-12.575412,-3.4569609)"><path
       style="fill:#ffff;stroke-width:1.74544"
       d="m 50.449308,119.33586 c -0.536272,-0.11991 -1.825091,-0.78065 -2.864042,-1.4682 -1.322579,-0.87524 -2.464486,-1.21508 -3.808217,-1.13337 -5.978092,0.36356 -6.463941,0.16113 -10.009719,-4.17057 -0.777257,-0.94953 -1.735343,-1.36557 -3.776255,-1.6398 -5.056656,-0.67944 -10.561896,-4.07008 -13.58453,-8.36662 -0.660603,-0.93903 -1.47229,-1.98724 -1.803749,-2.32936 -1.499352,-1.547604 -2.55813,-10.633489 -1.746373,-14.986476 1.035378,-5.552149 5.465185,-10.321763 9.586393,-10.321763 2.82529,0 5.502042,1.4691 6.841633,3.754938 1.6395,2.797598 1.576547,3.731308 -0.517628,7.677561 -2.071459,3.903444 -2.152138,5.079909 -0.579893,8.456145 0.644888,1.384829 1.299356,3.877156 1.454374,5.538505 0.398885,4.27487 3.472861,9.91814 4.722088,8.66892 0.146511,-0.14651 -0.281635,-1.13744 -0.951432,-2.20208 -1.845048,-2.93268 -2.55252,-6.63714 -2.12967,-11.151375 0.376833,-4.022963 0.858126,-5.667587 3.270664,-11.176103 2.576798,-5.88357 2.927634,-6.758246 4.030063,-10.047412 1.036982,-3.0939 1.046487,-3.281501 0.197727,-3.90213 -0.490396,-0.358585 -1.264341,-0.651974 -1.719879,-0.651974 -0.825031,0 -7.130178,-4.749534 -7.460802,-5.620065 -0.09556,-0.251632 -1.794884,-1.267683 -3.776254,-2.257891 -6.396576,-3.196749 -6.737756,-4.147085 -2.527384,-7.039872 l 2.837362,-1.94944 -2.711487,-0.262412 c -2.789879,-0.269996 -5.164643,-1.460367 -5.700802,-2.857573 -0.203863,-0.531258 0.51409,-1.562125 2.17062,-3.116674 4.656272,-4.369614 6.458972,-8.804792 4.959886,-12.202791 C 22.562837,29.389094 21.589267,20.7997 22.43752,13.276016 c 0.956478,-8.4835998 3.098227,-10.7768054 8.762083,-9.3817 4.743676,1.1684491 12.54316,5.2974762 16.040801,8.491958 1.213869,1.108655 1.659925,1.207309 4.294482,0.949803 1.616954,-0.158049 3.613016,-0.545587 4.435692,-0.861209 1.735953,-0.665999 11.586235,-0.248404 13.738056,0.582416 2.625638,1.013766 4.417832,0.630593 7.736964,-1.654178 8.074966,-5.5585176 15.723509,-8.6698098 19.180309,-7.8022093 2.381651,0.597755 3.319101,2.8215234 4.398833,10.4346113 0.71235,5.022658 -0.22728,14.075343 -2.027932,19.537636 l -1.391191,4.220239 1.01898,2.451949 c 0.560441,1.348573 2.348083,3.902418 3.972523,5.675217 1.62446,1.772796 2.95354,3.579811 2.95354,4.015587 0,1.285282 -2.26815,2.398922 -5.47882,2.690055 l -2.997313,0.271787 2.979323,1.989512 c 4.46708,2.983003 4.03697,4.650013 -1.698783,6.584206 -1.47937,0.49887 -3.61998,1.906341 -5.53491,3.639249 -1.717419,1.554171 -4.330995,3.517157 -5.807964,4.36219 -1.476967,0.845035 -2.801385,1.838681 -2.943131,2.208103 -0.25047,0.652714 1.441169,5.415303 3.397555,9.565313 0.530751,1.125901 0.965016,2.383396 0.965016,2.794428 0,0.411034 0.201212,0.962582 0.447126,1.22566 0.245933,0.263078 1.023453,2.17764 1.727822,4.254579 1.119346,3.300517 1.254775,4.410571 1.075012,8.81126 -0.177021,4.334062 -0.409618,5.432182 -1.67071,7.887922 -1.185534,2.30858 -1.416262,3.28594 -1.209236,5.1226 0.217813,1.93245 0.07174,2.45374 -0.982767,3.50829 -1.30698,1.30698 -4.989511,2.129 -8.533403,1.90485 -1.290591,-0.0816 -2.446068,0.28078 -3.843287,1.20542 -1.718396,1.13718 -2.535485,1.32214 -5.840533,1.32214 -3.020175,0 -4.262329,-0.23587 -5.803407,-1.102 l -1.96075,-1.10201 -2.185578,1.02206 c -2.121505,0.99211 -7.224948,1.67649 -9.202614,1.23411 z m 0.715579,-3.75848 c -0.01012,-1.49777 -0.7477,-2.60654 -1.446498,-2.17466 -0.738617,0.45649 -0.71417,1.94476 0.0444,2.70333 0.915307,0.91531 1.410647,0.72854 1.402091,-0.52867 z m 3.701082,-1.29675 c -0.157472,-0.60219 -0.599753,-1.09488 -0.982843,-1.09488 -0.837453,0 -0.869894,0.48547 -0.157613,2.35886 0.443453,1.16634 0.61754,1.2769 0.982844,0.62415 0.244166,-0.43629 0.315095,-1.28595 0.157612,-1.88813 z m 15.144853,0.24047 c 0.249353,-1.05562 0.166864,-1.37747 -0.312625,-1.21997 -0.358232,0.11766 -0.724127,0.98949 -0.813109,1.9374 -0.188455,2.0077 0.60083,1.50471 1.125734,-0.71743 z m 4.221224,0.007 c -0.282672,-1.90415 -1.40893,-1.55267 -1.40893,0.4397 0,1.62729 0.09966,1.78314 0.779545,1.21889 0.428765,-0.35584 0.71198,-1.1022 0.629385,-1.65859 z m -12.257582,-0.37319 c 0.653979,1.05818 1.149421,0.51222 1.450612,-1.59852 0.167911,-1.17693 0.451195,-3.15946 0.629474,-4.40563 0.296723,-2.07406 2.880261,-10.858391 4.193018,-14.256672 0.301157,-0.779572 0.547543,-1.464896 0.547543,-1.522941 0,-0.05806 -1.500741,1.316158 -3.334999,3.053782 -2.997276,2.839392 -4.721012,3.852477 -4.721012,2.774677 0,-0.211553 -0.906299,-0.944765 -2.014003,-1.629361 -1.107692,-0.684598 -2.021531,-1.361166 -2.030745,-1.503487 -0.03465,-0.535351 -2.033087,-2.656516 -2.274943,-2.414661 -0.138884,0.138885 0.425589,2.09163 1.254382,4.339437 2.430881,6.592916 4.139531,14.236016 3.75009,16.774886 l -0.335717,2.18861 1.27586,-1.17075 c 0.814942,-0.7478 1.396712,-0.97517 1.61044,-0.62937 z m -0.959621,-5.5006 c -0.223083,-0.96924 -0.950388,-3.43512 -1.616253,-5.47974 -0.665848,-2.04461 -1.126153,-3.801955 -1.022894,-3.905213 0.103329,-0.103258 0.599102,0.266796 1.101874,0.822343 1.158445,1.28009 1.802247,1.27005 3.485909,-0.0543 0.744235,-0.585424 1.443857,-0.973715 1.554693,-0.862869 0.110834,0.110834 -0.126021,1.212899 -0.526249,2.449029 -0.400297,1.23612 -1.14263,3.72024 -1.649644,5.52025 l -0.921833,3.27276 z m 21.374782,3.75056 c 0,-0.98611 -1.140537,-2.74357 -1.7805,-2.74357 -0.108917,0 -0.411974,0.39969 -0.673405,0.8882 -0.320863,0.59951 -0.244395,1.43745 0.235233,2.57816 0.596553,1.4188 0.831576,1.58955 1.464627,1.06416 0.414733,-0.3442 0.754045,-1.14833 0.754045,-1.78695 z M 42.864838,112.1788 c 0,-2.28764 -1.533824,-2.79164 -1.854133,-0.60924 -0.286102,1.94935 0.02339,2.71028 1.023998,2.51757 0.58112,-0.11188 0.830135,-0.68434 0.830135,-1.90833 z m -4.287465,-0.62937 c 0.0042,-0.48462 -0.205494,-0.88112 -0.466076,-0.88112 -0.77834,0 -1.124086,0.94553 -0.762421,2.08503 0.266705,0.84031 0.433588,0.92014 0.780041,0.37312 0.242409,-0.38274 0.444216,-1.09241 0.448456,-1.57703 z m 6.284501,-5.76973 c -1.05313,-3.26516 -2.418145,-7.484759 -3.033367,-9.376878 -0.615224,-1.892119 -1.233006,-3.25157 -1.372848,-3.021005 -0.362887,0.59831 0.499198,5.664154 1.39688,8.208463 0.418302,1.18559 0.760549,2.53239 0.760549,2.99287 0,0.46048 0.427473,1.67569 0.949941,2.70049 0.522469,1.02479 1.109477,2.71364 1.304461,3.75301 0.483817,2.57895 0.856406,3.03904 1.426478,1.76146 0.366246,-0.82079 0.02076,-2.51387 -1.432094,-7.01841 z m 41.052268,5.86367 c 0,-0.50359 -0.226575,-1.05566 -0.503505,-1.22681 -0.276931,-0.17116 -0.503505,0.13681 -0.503505,0.68436 0,0.54753 -0.155693,1.41056 -0.346015,1.91783 -0.304595,0.8119 -0.244326,0.83959 0.503505,0.23128 0.467235,-0.38007 0.84952,-1.10306 0.84952,-1.60666 z m -7.546921,-0.59744 c 0.301349,-1.17693 0.893121,-3.15946 1.315028,-4.40563 1.496551,-4.42025 2.180935,-7.546581 2.44673,-11.176941 l 0.269163,-3.676332 -0.98397,3.632507 c -0.54119,1.997877 -1.202551,4.040894 -1.469672,4.540035 -0.585122,1.093311 -3.092088,11.099901 -3.092837,12.345121 -0.001,1.67819 0.970076,0.87165 1.515558,-1.25876 z M 60.430315,56.029507 c 1.04122,-0.682231 1.322776,-0.682564 2.625655,-0.0032 0.802672,0.41859 1.835759,0.762469 2.295768,0.764175 0.839326,0.0032 3.443373,-2.689153 3.443373,-3.560032 0,-0.763302 -0.538903,-0.5327 -1.4847,0.635316 -0.776911,0.959426 -1.109329,1.03593 -2.598217,0.597951 -1.287833,-0.378835 -1.666278,-0.74194 -1.54024,-1.477812 0.516839,-3.017475 0.376857,-3.429595 -1.282684,-3.776056 -1.218608,-0.254409 -1.820312,-0.11567 -2.432593,0.560891 -0.752752,0.831778 -0.735228,0.977174 0.234465,1.946875 1.30958,1.309574 1.335361,2.36923 0.07401,3.044252 -1.563824,0.836935 -2.531737,0.610001 -3.145715,-0.737534 -0.631929,-1.386932 -1.922391,-1.709558 -1.922391,-0.480616 0,1.129599 2.296074,3.249866 3.519335,3.249866 0.576181,0 1.572422,-0.343877 2.213886,-0.764175 z M 43.83906,53.785141 c 2.497467,-0.949537 1.084672,-3.316606 -2.302835,-3.85829 -1.326451,-0.212106 -2.277951,-0.727065 -2.791434,-1.510738 -1.271194,-1.940088 -1.821867,-1.433892 -1.54741,1.42243 0.375516,3.908081 2.859986,5.384394 6.641679,3.946598 z m 40.124229,-0.381609 c 1.616149,-0.954688 2.835334,-3.959797 2.235096,-5.509186 -0.320671,-0.827766 -0.4565,-0.781567 -1.369117,0.465701 -0.672742,0.919422 -1.470614,1.384626 -2.374784,1.384626 -0.761741,0 -2.124855,0.637158 -3.093989,1.446231 -1.507024,1.258112 -1.643884,1.552828 -1.052217,2.265752 0.895337,1.07881 3.784745,1.051665 5.655011,-0.05313 z M 48.584464,47.186989 c 1.965482,-2.109697 1.557074,-5.735936 -0.710102,-6.304961 -2.098499,-0.526689 -3.943138,0.0019 -4.693437,1.345027 -1.99124,3.564456 2.69562,7.866546 5.403539,4.959934 z m 31.115064,-0.244946 c 1.047609,-1.047613 1.231526,-1.595134 0.971874,-2.893379 -0.383035,-1.915198 -1.556001,-3.127769 -3.453286,-3.569887 -2.073173,-0.483111 -4.121596,1.670643 -3.696548,3.886641 0.350675,1.828217 2.399272,3.868754 3.884024,3.868754 0.550999,0 1.583266,-0.581458 2.293936,-1.292129 z"
       id="path1" /></g></svg>
